<?xml version="1.0" encoding="utf-8"?>
<!-- Generator: Adobe Illustrator 28.4.1, SVG Export Plug-In . SVG Version: 6.00 Build 0)  -->
<svg version="1.1" id="Layer_1" xmlns="http://www.w3.org/2000/svg" xmlns:xlink="http://www.w3.org/1999/xlink" x="0px" y="0px"
	 viewBox="0 0 100 100" style="enable-background:new 0 0 100 100;" xml:space="preserve">
<style type="text/css">
	.st0{fill:#FFD600;}
	.st1{fill-rule:evenodd;clip-rule:evenodd;fill:#FFD600;}
</style>
<path class="st0" d="M50,2.7l1.9-1.9C51.4,0.3,50.7,0,50,0V2.7z M86.1,38.2h2.7c0-0.7-0.3-1.4-0.8-1.9L86.1,38.2z M73.2,94.6H26.8
	v5.4h46.5v-5.4H73.2z M16.7,84.6V15.4h-5.4v69.1L16.7,84.6L16.7,84.6z M26.8,5.4H50V0H26.8V5.4z M88,36.2L51.9,0.8l-3.8,3.9
	l36.1,35.5L88,36.2z M26.8,94.6c-5.6,0-10.1-4.5-10.1-10h-5.4c0,8.5,7,15.4,15.5,15.4V94.6z M73.2,100c8.6,0,15.5-6.9,15.5-15.4
	h-5.4c0,5.5-4.5,10-10.1,10V100z M62.8,35.5c-5.6,0-10.1-4.5-10.1-10h-5.4c0,8.5,7,15.4,15.5,15.4C62.8,40.9,62.8,35.5,62.8,35.5z
	 M16.7,15.4c0-5.5,4.5-10,10.1-10V0c-8.6,0-15.5,6.9-15.5,15.4H16.7z M83.3,38.2v46.4h5.4V38.2H83.3z M52.7,25.5V2.7h-5.4v22.7
	L52.7,25.5L52.7,25.5z M62.8,40.9H86v-5.4H62.8V40.9z"/>
<path class="st1" d="M39.7,52.8l-4-1.9l-3,3.1l2.1,3.9l-2.5,6.5l-4.1,1.5l0.1,4.3l4.2,1.2l2.8,6.4l-1.9,4l3.1,3l3.9-2.1l6.5,2.5
	l1.5,4.1l4.3-0.1l1.2-4.2l6.4-2.8l4,1.9l3-3.1l-2.1-4l2.5-6.5l4.1-1.5l-0.1-4.3l-4.2-1.2l-2.8-6.4l1.9-4l-3.1-3l-3.9,2.1l-6.5-2.5
	l-1.5-4.1l-4.3,0.1l-1.2,4.2L39.7,52.8z M58.9,77.7c5.7-4.9,6.3-13.5,1.4-19.1c-4.9-5.7-13.5-6.3-19.1-1.4s-6.3,13.5-1.4,19.1
	S53.2,82.6,58.9,77.7z"/>
<g id="XMLID_00000077292320251557090190000011095460827859812994_">
	<g>
		<path class="st0" d="M86,38.3H62.8c-7.1,0-12.8-5.7-12.8-12.8V2.7L86,38.3z"/>
	</g>
	<g>
	</g>
</g>
</svg>
