<?xml version="1.0" encoding="utf-8"?>
<!-- Generator: Adobe Illustrator 28.4.1, SVG Export Plug-In . SVG Version: 6.00 Build 0)  -->
<svg version="1.1" id="Layer_1" xmlns="http://www.w3.org/2000/svg" xmlns:xlink="http://www.w3.org/1999/xlink" x="0px" y="0px"
	 viewBox="0 0 100 100" style="enable-background:new 0 0 100 100;" xml:space="preserve">
<style type="text/css">
	.st0{fill:#FFA800;}
</style>
<path class="st0" d="M86.1,38.1L50,2.4v22.9c0,7.1,5.7,12.8,12.8,12.8H86.1z"/>
<path class="st0" d="M50,2.4l1.7-1.7C51.3,0.3,50.6,0,50,0V2.4z M86.1,38.1h2.4c0-0.6-0.3-1.3-0.7-1.7L86.1,38.1z M73.2,95.2H26.8
	v4.8h46.5V95.2z M16.4,84.8V15.2h-4.8v69.6H16.4z M26.8,4.8H50V0H26.8V4.8z M87.8,36.4L51.7,0.7l-3.4,3.4l36.1,35.7L87.8,36.4z
	 M26.8,95.2c-5.7,0-10.4-4.6-10.4-10.4h-4.8c0,8.4,6.8,15.2,15.2,15.2V95.2z M73.2,100c8.4,0,15.2-6.8,15.2-15.2h-4.8
	c0,5.7-4.7,10.4-10.4,10.4V100z M62.8,35.7c-5.7,0-10.4-4.6-10.4-10.4h-4.8c0,8.4,6.8,15.2,15.2,15.2V35.7z M16.4,15.2
	c0-5.7,4.7-10.4,10.4-10.4V0c-8.4,0-15.2,6.8-15.2,15.2H16.4z M83.6,38.1v46.7h4.8V38.1H83.6z M52.4,25.3V2.4h-4.8v22.9H52.4z
	 M62.8,40.5h23.2v-4.8H62.8V40.5z"/>
<path class="st0" d="M40.9,84.3c-0.1,0.3-0.5,0.5-0.8,0.4c-4.4-1.4-6.5-4.4-6.5-9v-3.9c0-2.5-0.9-3.9-2.8-4.1
	C30.3,67.7,30,67.4,30,67v-2.7c0-0.4,0.3-0.7,0.7-0.7c1.9-0.2,2.8-1.5,2.8-3.9v-4.2c0-2.4,0.6-4.4,1.8-5.9c1.1-1.4,2.7-2.4,4.8-3.1
	c0.4-0.1,0.7,0.1,0.8,0.4l0.7,1.9c0.1,0.4-0.1,0.8-0.4,0.9c-0.7,0.4-1.3,0.9-1.7,1.6c-0.5,0.9-0.8,2.2-0.8,3.8v4.1
	c0,2.4-0.8,4.3-2.4,5.5c-0.5,0.4-0.5,1.1,0,1.5c1.6,1.3,2.4,3.1,2.4,5.5v4.2c0.1,2.7,0.9,4.5,2.5,5.3c0.3,0.2,0.5,0.6,0.4,0.9
	L40.9,84.3z"/>
<path class="st0" d="M56.2,82.4c-0.1-0.4,0.1-0.8,0.4-0.9c1.6-0.9,2.4-2.7,2.5-5.4v-4.2c0-2.4,0.8-4.2,2.4-5.4
	c0.5-0.4,0.5-1.2,0-1.5c-1.6-1.2-2.4-3.1-2.4-5.5v-4.1c0-2.7-0.9-4.5-2.5-5.4c-0.3-0.2-0.5-0.6-0.4-0.9l0.7-1.9
	c0.1-0.3,0.5-0.5,0.8-0.4c2.1,0.7,3.6,1.7,4.7,3c1.2,1.5,1.8,3.4,1.8,5.8v4.2c0,2.3,1,3.6,2.9,3.9c0.4,0.1,0.7,0.4,0.7,0.7V67
	c0,0.4-0.3,0.7-0.7,0.7c-1.9,0.3-2.9,1.6-2.9,4.1v4.3c-0.1,4.4-2.3,7.3-6.5,8.6c-0.4,0.1-0.7-0.1-0.8-0.4L56.2,82.4z"/>
</svg>
