<?xml version="1.0" encoding="utf-8"?>
<!-- Generator: Adobe Illustrator 28.4.1, SVG Export Plug-In . SVG Version: 6.00 Build 0)  -->
<svg version="1.1" id="Layer_1" xmlns="http://www.w3.org/2000/svg" xmlns:xlink="http://www.w3.org/1999/xlink" x="0px" y="0px"
	 viewBox="0 0 100 100" style="enable-background:new 0 0 100 100;" xml:space="preserve">
<style type="text/css">
	.st0{fill-rule:evenodd;clip-rule:evenodd;fill:#524E5A;}
</style>
<path class="st0" d="M86.1,45.3h-5.7v-9.6c0-8.2-3.4-15.7-8.8-20.9c-5.4-5.4-12.8-8.8-20.9-8.8c-8.2,0-15.7,3.4-20.9,8.8
	C24.5,20.1,21,27.5,21,35.7v9.6h-7.3c-1.3,0-2.3,1-2.3,2.3v44.2c0,1.3,1,2.3,2.3,2.3h72.7c1.3,0,2.3-1,2.3-2.3v-44
	C88.4,46.5,87.6,45.3,86.1,45.3z M40.9,85.5l3.7-8.3l3-6.8c-2.5-1.1-4.3-3.6-4.3-6.6c0-4,3.2-7.2,7.2-7.2c4,0,7.2,3.2,7.2,7.2
	c0,2.9-1.8,5.4-4.3,6.6l3,6.8l3.7,8.3H40.9z M68.7,45.3H32.3v-9.6c0-5,2.1-9.6,5.4-12.8c3.4-3.4,7.8-5.4,12.8-5.4s9.6,2.1,13,5.4
	c3.4,3.4,5.4,7.8,5.4,12.8C68.7,35.9,68.7,45.3,68.7,45.3z"/>
</svg>
