<?xml version="1.0" encoding="utf-8"?>
<!-- Generator: Adobe Illustrator 28.4.1, SVG Export Plug-In . SVG Version: 6.00 Build 0)  -->
<svg version="1.1" id="Layer_1" xmlns="http://www.w3.org/2000/svg" xmlns:xlink="http://www.w3.org/1999/xlink" x="0px" y="0px"
	 viewBox="0 0 208 128" style="enable-background:new 0 0 208 128;" xml:space="preserve">
<style type="text/css">
	.st0{fill-rule:evenodd;clip-rule:evenodd;fill:#2EB4FF;}
	.st1{fill:#2EB4FF;}
	.st2{fill:#2EB4FF;}
</style>
<path class="st0" d="M15,10c-2.8,0-5,2.2-5,5v98c0,2.8,2.2,5,5,5h178c2.8,0,5-2.2,5-5V15c0-2.8-2.2-5-5-5H15z M0,15
	C0,6.7,6.7,0,15,0h178c8.3,0,15,6.7,15,15v98c0,8.3-6.7,15-15,15H15c-8.3,0-15-6.7-15-15V15z"/>
<path class="st1" d="M90,30L70,55L50,30H30v68h20V59l20,25l20-25v39h20V30H90z"/>
<polygon class="st2" points="185,65 155,98 125,65 145,65 145,30 165,30 165,65 "/>
</svg>
