<?xml version="1.0" encoding="utf-8"?>
<!-- Generator: Adobe Illustrator 28.4.1, SVG Export Plug-In . SVG Version: 6.00 Build 0)  -->
<svg version="1.1" id="Layer_1" xmlns="http://www.w3.org/2000/svg" xmlns:xlink="http://www.w3.org/1999/xlink" x="0px" y="0px"
	 viewBox="0 0 100 100" style="enable-background:new 0 0 100 100;" xml:space="preserve">
<style type="text/css">
	.st0{fill:#2B66FF;}
	.st1{fill:#D6E0E3;}
</style>
<path class="st0" d="M50,2.7l1.9-1.9C51.4,0.3,50.7,0,50,0V2.7z M86.1,38.2h2.7c0-0.7-0.3-1.4-0.8-1.9L86.1,38.2z M73.2,94.6H26.8
	v5.4h46.5v-5.4H73.2z M16.7,84.6V15.4h-5.4v69.1L16.7,84.6L16.7,84.6z M26.8,5.4H50V0H26.8V5.4z M88,36.2L51.9,0.8l-3.8,3.9
	l36.1,35.5L88,36.2z M26.8,94.6c-5.6,0-10.1-4.5-10.1-10h-5.4c0,8.5,7,15.4,15.5,15.4V94.6z M73.2,100c8.6,0,15.5-6.9,15.5-15.4
	h-5.4c0,5.5-4.5,10-10.1,10V100z M62.8,35.5c-5.6,0-10.1-4.5-10.1-10h-5.4c0,8.5,7,15.4,15.5,15.4C62.8,40.9,62.8,35.5,62.8,35.5z
	 M16.7,15.4c0-5.5,4.5-10,10.1-10V0c-8.6,0-15.5,6.9-15.5,15.4H16.7z M83.3,38.2v46.4h5.4V38.2H83.3z M52.7,25.5V2.7h-5.4v22.7
	L52.7,25.5L52.7,25.5z M62.8,40.9H86v-5.4H62.8V40.9z"/>
<path class="st1" d="M31.9,89.5v-43h21.4c3.7,0,6.9,0.6,9.7,1.7c2.8,1.2,4.9,2.8,6.5,5c1.5,2.2,2.3,4.8,2.3,7.8
	c0,3.1-0.8,5.7-2.4,7.8c-1.6,2.1-3.8,3.7-6.6,4.8c-2.8,1.1-6.1,1.6-9.9,1.6H40v-9.1h10.1c1.6,0,2.9-0.2,4.1-0.5
	c1.1-0.3,2-0.9,2.6-1.7c0.6-0.8,0.9-1.7,0.9-3c0-1.2-0.3-2.2-0.9-3c-0.6-0.8-1.5-1.4-2.6-1.7c-1.1-0.4-2.5-0.6-4.1-0.6h-4.8v33.7
	H31.9z M61,69.8l12.4,19.7H58.7L46.6,69.8H61z"/>
</svg>
