<?xml version="1.0" encoding="utf-8"?>
<!-- Generator: Adobe Illustrator 28.4.1, SVG Export Plug-In . SVG Version: 6.00 Build 0)  -->
<svg version="1.1" id="Layer_1" xmlns="http://www.w3.org/2000/svg" xmlns:xlink="http://www.w3.org/1999/xlink" x="0px" y="0px"
	 viewBox="0 0 100 100" style="enable-background:new 0 0 100 100;" xml:space="preserve">
<style type="text/css">
	.st0{fill:#D6E0E3;}
	.st1{fill:#2B66FF;}
	.st2{fill:#2EB4FF;}
</style>
<path class="st0" d="M50,2.7l1.9-1.9C51.4,0.3,50.7,0,50,0V2.7z M86.1,38.2h2.7c0-0.7-0.3-1.4-0.8-1.9L86.1,38.2z M72,49.3v5.4
	 M73.2,94.6H26.8v5.4h46.5V94.6z M16.7,84.6V15.4h-5.4v69.1H16.7z M26.8,5.4H50V0H26.8V5.4z M88,36.2L51.9,0.8l-3.8,3.9l36.1,35.5
	L88,36.2z M26.8,94.6c-5.6,0-10.1-4.5-10.1-10h-5.4c0,8.5,7,15.4,15.5,15.4V94.6z M73.2,100c8.6,0,15.5-6.9,15.5-15.4h-5.4
	c0,5.5-4.5,10-10.1,10V100z M62.8,35.5c-5.6,0-10.1-4.5-10.1-10h-5.4c0,8.5,7,15.4,15.5,15.4V35.5z M16.7,15.4c0-5.5,4.5-10,10.1-10
	V0c-8.6,0-15.5,6.9-15.5,15.4H16.7z M83.3,38.2v46.4h5.4V38.2H83.3z M52.7,25.5V2.7h-5.4v22.7H52.7z M62.8,40.9h23.2v-5.4H62.8V40.9
	z M72,54.7v-5.4"/>
<path class="st1" d="M63.8,45.1h10.7v10.7H63.8V45.1z"/>
<path class="st1" d="M44.1,53.9l6.3-8.6l8.6,6.3l-6.3,8.6L44.1,53.9z"/>
<path class="st1" d="M72.4,69.6L62.3,73L58.8,63l10.1-3.5"/>
<path class="st2" d="M28.6,55.6h10.7v10.7H28.6V55.6z"/>
<path class="st2" d="M28.6,68h10.7v10.7H28.6V68z"/>
<path class="st2" d="M40.8,68h10.7v10.7H40.8V68z"/>
<path class="st2" d="M28.6,80.3h10.7v10.7H28.6V80.3z"/>
<path class="st2" d="M40.8,80.3h10.7v10.7H40.8V80.3z"/>
<path class="st2" d="M53.2,80.3h10.7v10.7H53.2V80.3z"/>
</svg>
