<?xml version="1.0" encoding="utf-8"?>
<!-- Generator: Adobe Illustrator 28.4.1, SVG Export Plug-In . SVG Version: 6.00 Build 0)  -->
<svg version="1.1" id="Layer_1" xmlns="http://www.w3.org/2000/svg" xmlns:xlink="http://www.w3.org/1999/xlink" x="0px" y="0px"
	 viewBox="0 0 161 161" style="enable-background:new 0 0 161 161;" xml:space="preserve">
<style type="text/css">
	.st0{fill:none;stroke:#FF4D35;stroke-width:8;}
	.st1{fill:#FF4D35;}
</style>
<path class="st0" d="M152.1,69.1L91.7,8.7c-6.2-6.2-16.4-6.2-22.6,0L8.7,69.1c-6.2,6.2-6.2,16.4,0,22.6l60.4,60.4
	c6.2,6.2,16.4,6.2,22.6,0l60.4-60.4C158.3,85.4,158.3,75.3,152.1,69.1z"/>
<path class="st1" d="M47.9,116.2V42.6h36.7c6.3,0,11.8,1,16.6,3c4.7,2,8.4,4.8,11,8.6c2.6,3.7,3.9,8.2,3.9,13.4
	c0,5.3-1.4,9.7-4.1,13.3c-2.7,3.6-6.5,6.3-11.3,8.2c-4.8,1.8-10.5,2.8-17,2.8H61.9V76.4h17.3c2.7,0,5-0.3,6.9-0.9
	c1.9-0.6,3.4-1.5,4.4-2.8c1.1-1.3,1.6-3,1.6-5.1c0-2.1-0.5-3.8-1.6-5.1c-1-1.3-2.5-2.3-4.4-2.9c-1.9-0.6-4.2-1-6.9-1H71v57.6H47.9z
	 M97.7,82.4l21.2,33.7H93.9L73.2,82.4H97.7z"/>
</svg>
