<?xml version="1.0" encoding="utf-8"?>
<!-- Generator: Adobe Illustrator 28.4.1, SVG Export Plug-In . SVG Version: 6.00 Build 0)  -->
<svg version="1.1" id="Layer_1" xmlns="http://www.w3.org/2000/svg" xmlns:xlink="http://www.w3.org/1999/xlink" x="0px" y="0px"
	 viewBox="0 0 100 100" style="enable-background:new 0 0 100 100;" xml:space="preserve">
<style type="text/css">
	.st0{fill:#AFED00;}
	.st1{fill:#AFED00;}
	.st2{fill:#AFED00;}
</style>
<path class="st0" d="M50,2.7l1.9-1.9C51.4,0.3,50.7,0,50,0V2.7z M86.1,38.2h2.7c0-0.7-0.3-1.4-0.8-1.9L86.1,38.2z M73.2,94.6H26.8
	v5.4h46.5V94.6z M16.7,84.6V15.4h-5.4v69.1H16.7z M26.8,5.4H50V0H26.8V5.4z M88,36.2L51.9,0.8l-3.8,3.9l36.1,35.5L88,36.2z
	 M26.8,94.6c-5.6,0-10.1-4.5-10.1-10h-5.4c0,8.5,7,15.4,15.5,15.4V94.6z M73.2,100c8.6,0,15.5-6.9,15.5-15.4h-5.4
	c0,5.5-4.5,10-10.1,10V100z M62.8,35.5c-5.6,0-10.1-4.5-10.1-10h-5.4c0,8.5,7,15.4,15.5,15.4V35.5z M16.7,15.4c0-5.5,4.5-10,10.1-10
	V0c-8.6,0-15.5,6.9-15.5,15.4H16.7z M83.3,38.2v46.4h5.4V38.2H83.3z M52.7,25.5V2.7h-5.4v22.7H52.7z M62.8,40.9h23.2v-5.4H62.8V40.9
	z"/>
<path class="st1" d="M29.7,56.1h10.2c1.5,0,2.8,1.3,2.8,2.8c0,1.5-1.3,2.8-2.8,2.8H29.7c-1.5,0-2.8-1.3-2.8-2.8
	C26.9,57.4,28.1,56.1,29.7,56.1z"/>
<path class="st1" d="M53.6,75.6H29.7c-1.5,0-2.8-1.3-2.8-2.8s1.3-2.8,2.8-2.8h23.9c1.5,0,2.8,1.3,2.8,2.8S55.1,75.6,53.6,75.6z"/>
<path class="st1" d="M70.3,75.6h-6.8c-1.5,0-2.8-1.3-2.8-2.8S62,70,63.5,70h6.8c1.5,0,2.8,1.3,2.8,2.8S71.9,75.6,70.3,75.6z"/>
<path class="st1" d="M70.3,61.7H49.9c-1.5,0-2.8-1.3-2.8-2.8c0-1.5,1.3-2.8,2.8-2.8h20.5c1.5,0,2.8,1.3,2.8,2.8
	C73.1,60.4,71.9,61.7,70.3,61.7z"/>
<path class="st2" d="M86,38.3L50,2.6v22.9c0,7.1,5.7,12.8,12.8,12.8H86z"/>
</svg>
