<?xml version="1.0" encoding="utf-8"?>
<!-- Generator: Adobe Illustrator 28.4.1, SVG Export Plug-In . SVG Version: 6.00 Build 0)  -->
<svg version="1.1" id="Layer_1" xmlns="http://www.w3.org/2000/svg" xmlns:xlink="http://www.w3.org/1999/xlink" x="0px" y="0px"
	 viewBox="0 0 205 209" style="enable-background:new 0 0 205 209;" xml:space="preserve">
<style type="text/css">
	.st0{fill:#524E5A00;}
	.st1{fill:none;stroke:#D6E0E3;stroke-width:8;stroke-linecap:round;stroke-linejoin:round;}
</style>
<g id="XMLID_00000080925132671758937340000003718899065013579183_">
	<g>
		<path class="st0" d="M201,34.1v140.3c0,1.9-1.1,3.6-2.8,4.5L147,204.5v-60.4V61.4V4l51.2,25.6C199.9,30.5,201,32.2,201,34.1z"/>
		<polygon class="st0" points="147,4 147,61.4 92.3,103 62.4,80.5 		"/>
		<path class="st0" d="M147,144.1v60.4l-84.6-78.8l-24.7-23L5.9,73.2c-2.1-2-2.1-5.3,0-7.3l13.5-12.5c1.8-1.6,4.5-1.8,6.4-0.3
			l36.5,27.5L92.3,103L147,144.1z"/>
		<path class="st0" d="M62.4,125.7L26,153.3c-2,1.5-4.8,1.3-6.6-0.5L5.6,138.7c-2-2-1.9-5.3,0.2-7.2l31.8-28.8L62.4,125.7z"/>
	</g>
	<g>
		<path class="st1" d="M147,204.5l51.2-25.6c1.7-0.8,2.8-2.6,2.8-4.5V34.1c0-1.9-1.1-3.6-2.8-4.5L147,4"/>
		<line class="st1" x1="147" y1="204.5" x2="147" y2="144.1"/>
		<line class="st1" x1="147" y1="204.5" x2="62.4" y2="125.7"/>
		<line class="st1" x1="147" y1="4" x2="147" y2="61.4"/>
		<line class="st1" x1="147" y1="4" x2="62.4" y2="80.5"/>
		<line class="st1" x1="147" y1="61.4" x2="147" y2="144.1"/>
		<line class="st1" x1="147" y1="61.4" x2="92.3" y2="103"/>
		<line class="st1" x1="147" y1="144.1" x2="92.3" y2="103"/>
		<line class="st1" x1="37.7" y1="102.7" x2="62.4" y2="125.7"/>
		<path class="st1" d="M37.7,102.7L5.9,131.5c-2.1,1.9-2.2,5.2-0.2,7.2l13.8,14.1c1.8,1.8,4.6,2,6.6,0.5l36.3-27.6"/>
		<path class="st1" d="M37.7,102.7L5.9,73.2c-2.1-2-2.1-5.3,0-7.3l13.5-12.5c1.8-1.6,4.5-1.8,6.4-0.3l36.5,27.5"/>
		<line class="st1" x1="92.3" y1="103" x2="62.4" y2="80.5"/>
	</g>
</g>
</svg>
