<?xml version="1.0" encoding="utf-8"?>
<!-- Generator: Adobe Illustrator 28.4.1, SVG Export Plug-In . SVG Version: 6.00 Build 0)  -->
<svg version="1.1" id="Layer_1" xmlns="http://www.w3.org/2000/svg" xmlns:xlink="http://www.w3.org/1999/xlink" x="0px" y="0px"
	 viewBox="0 0 100 100" style="enable-background:new 0 0 100 100;" xml:space="preserve">
<style type="text/css">
	.st0{fill:#524E5A;}
	.st1{fill:#D6E0E3;}
</style>
<path class="st0" d="M86,38.1L50,2.4v22.9c0,7.1,5.7,12.8,12.8,12.8H86z"/>
<path class="st0" d="M50,2.4l1.7-1.7C51.3,0.3,50.6,0,50,0V2.4z M86,38.1h2.4c0-0.7-0.3-1.3-0.7-1.7L86,38.1z M73.2,95.1H26.8v4.9
	h46.4V95.1z M16.5,84.8V15.2h-4.9v69.5h4.9V84.8z M26.8,4.9H50V0H26.8V4.9z M87.7,36.4l-36-35.7l-3.4,3.5l36,35.7L87.7,36.4z
	 M26.8,95.1c-5.7,0-10.4-4.6-10.4-10.4h-4.9c0,8.4,6.8,15.2,15.2,15.2L26.8,95.1L26.8,95.1z M73.2,100c8.4,0,15.2-6.8,15.2-15.2
	h-4.9c0,5.7-4.6,10.4-10.4,10.4v4.8H73.2z M62.8,35.7c-5.7,0-10.4-4.6-10.4-10.4h-4.9c0,8.4,6.8,15.2,15.2,15.2L62.8,35.7L62.8,35.7
	z M16.5,15.2c0-5.7,4.6-10.4,10.4-10.4V0c-8.4,0-15.2,6.8-15.2,15.2H16.5z M83.5,38.1v46.7h4.9V38.1H83.5z M52.4,25.3V2.4h-4.9v22.9
	H52.4z M62.8,40.5H86v-4.9H62.8V40.5z"/>
<circle class="st1" cx="48.3" cy="55" r="6.8"/>
<circle class="st1" cx="48.3" cy="77.3" r="6.8"/>
</svg>
